<svg width="15" height="16" viewBox="0 0 15 16" fill="none" xmlns="http://www.w3.org/2000/svg">
<path d="M14.5605 10.6504C14.7949 10.7676 14.9707 11.0312 14.9707 11.3242C14.9707 11.3535 14.9707 11.4121 14.9707 11.4707L14.2676 14.5176C14.1797 14.8398 13.916 15.0449 13.5938 15.0449C6.06445 15.0449 0 8.98047 0 1.45117C0 1.12891 0.205078 0.865234 0.527344 0.777344L3.57422 0.0742188C3.63281 0.0742188 3.69141 0.0449219 3.7207 0.0449219C4.01367 0.0449219 4.27734 0.220703 4.39453 0.484375L5.80078 3.76562C5.83008 3.85352 5.85938 3.94141 5.85938 4.0293C5.85938 4.26367 5.74219 4.46875 5.5957 4.58594L3.80859 6.05078C4.89258 8.33594 6.70898 10.1523 8.99414 11.2363L10.459 9.44922C10.5762 9.30273 10.7812 9.18555 10.9863 9.18555C11.1035 9.18555 11.1914 9.21484 11.2793 9.24414L14.5605 10.6504Z" fill="white"/>
</svg>
