<svg width="22" height="23" viewBox="0 0 22 23" fill="none" xmlns="http://www.w3.org/2000/svg">
<path d="M8.15491 9.38359V14.0627C8.15491 14.8146 7.52825 15.3995 6.81804 15.3995H6.1496C4.64562 15.3995 3.47585 14.2298 3.47585 12.7258V10.7205C3.47585 9.25826 4.64562 8.04672 6.1496 8.04672H6.81804C7.52825 8.04672 8.15491 8.67338 8.15491 9.38359ZM15.5077 15.3995H14.8393C14.0873 15.3995 13.5024 14.8146 13.5024 14.0627V9.38359C13.5024 8.67338 14.0873 8.04672 14.8393 8.04672H15.5077C16.9699 8.04672 18.1815 9.25826 18.1815 10.7205V12.7258C18.1815 14.2298 16.9699 15.3995 15.5077 15.3995ZM10.8287 0.693907C16.761 0.693907 21.3148 5.66541 21.5237 11.3889V18.3239C21.5237 20.4128 19.8108 22.0839 17.7219 22.0839H10.1602C9.03224 22.0839 8.15491 21.2066 8.15491 20.0786C8.15491 18.9924 9.03224 18.0733 10.1602 18.0733H11.4971C12.5833 18.0733 13.5024 18.9924 13.5024 20.0786H17.7219C18.7246 20.0786 19.5184 19.3266 19.5184 18.3239C19.5184 18.3239 19.4766 11.5142 19.4766 11.3889H19.5184C19.5184 6.62629 15.5913 2.69922 10.8287 2.69922C6.02427 2.69922 2.13898 6.62629 2.13898 11.3889V12.0573C2.13898 12.4333 1.80476 12.7258 1.47054 12.7258H0.802101C0.426105 12.7258 0.133663 12.4333 0.133663 12.0573V11.3889C0.300773 5.66541 4.8545 0.693907 10.8287 0.693907Z" fill="#015AF2"/>
</svg>
