<svg width="14" height="23" viewBox="0 0 14 23" fill="none" xmlns="http://www.w3.org/2000/svg">
<path d="M9.2 10.4698C11.6231 11.18 13.1271 13.812 12.208 16.4022C11.5813 18.2404 9.7431 19.3684 7.82134 19.4102V21.4155C7.82134 21.7915 7.48713 22.0839 7.15291 22.0839H5.81603C5.44004 22.0839 5.14759 21.7915 5.14759 21.4155V19.4102C3.81072 19.4102 2.5574 18.9924 1.51297 18.1568C1.17875 17.9062 1.13697 17.4466 1.42941 17.1542L2.89162 15.7338C3.1005 15.5249 3.43472 15.4831 3.72716 15.6502C4.14494 15.9426 4.64627 16.068 5.14759 16.068H7.9049C8.57334 16.068 9.15822 15.5249 9.15822 14.8564C9.15822 14.3133 8.78222 13.812 8.23912 13.6867L3.97783 12.4333C2.09785 11.8902 0.635641 10.3027 0.468532 8.38094C0.217868 5.66541 2.34851 3.36766 5.02226 3.36766H5.14759V1.36234C5.14759 1.02813 5.44004 0.693907 5.81603 0.693907H7.15291C7.48713 0.693907 7.82134 1.02813 7.82134 1.36234V3.36766C9.11644 3.40943 10.4115 3.82721 11.4142 4.62098C11.7484 4.91342 11.7902 5.37297 11.4978 5.66541L10.0355 7.08584C9.82666 7.29473 9.49244 7.3365 9.24177 7.16939C8.824 6.87695 8.32267 6.70984 7.77957 6.70984H5.02226C4.35382 6.70984 3.81072 7.29473 3.81072 7.96316C3.81072 8.50627 4.14494 9.0076 4.68804 9.13293L9.2 10.4698Z" fill="#015AF2"/>
</svg>
