<svg width="14" height="16" viewBox="0 0 14 16" fill="none" xmlns="http://www.w3.org/2000/svg">
<path d="M3.75 4.88086V3.70898C3.75 3.5332 3.89648 3.35742 4.10156 3.35742H5.27344C5.44922 3.35742 5.625 3.5332 5.625 3.70898V4.88086C5.625 5.08594 5.44922 5.23242 5.27344 5.23242H4.10156C3.89648 5.23242 3.75 5.08594 3.75 4.88086ZM7.85156 5.23242C7.64648 5.23242 7.5 5.08594 7.5 4.88086V3.70898C7.5 3.5332 7.64648 3.35742 7.85156 3.35742H9.02344C9.19922 3.35742 9.375 3.5332 9.375 3.70898V4.88086C9.375 5.08594 9.19922 5.23242 9.02344 5.23242H7.85156ZM4.10156 8.04492C3.89648 8.04492 3.75 7.89844 3.75 7.69336V6.52148C3.75 6.3457 3.89648 6.16992 4.10156 6.16992H5.27344C5.44922 6.16992 5.625 6.3457 5.625 6.52148V7.69336C5.625 7.89844 5.44922 8.04492 5.27344 8.04492H4.10156ZM7.85156 8.04492C7.64648 8.04492 7.5 7.89844 7.5 7.69336V6.52148C7.5 6.3457 7.64648 6.16992 7.85156 6.16992H9.02344C9.19922 6.16992 9.375 6.3457 9.375 6.52148V7.69336C9.375 7.89844 9.19922 8.04492 9.02344 8.04492H7.85156ZM5.625 10.5059C5.625 10.7109 5.44922 10.8574 5.27344 10.8574H4.10156C3.89648 10.8574 3.75 10.7109 3.75 10.5059V9.33398C3.75 9.1582 3.89648 8.98242 4.10156 8.98242H5.27344C5.44922 8.98242 5.625 9.1582 5.625 9.33398V10.5059ZM7.85156 10.8574C7.64648 10.8574 7.5 10.7109 7.5 10.5059V9.33398C7.5 9.1582 7.64648 8.98242 7.85156 8.98242H9.02344C9.19922 8.98242 9.375 9.1582 9.375 9.33398V10.5059C9.375 10.7109 9.19922 10.8574 9.02344 10.8574H7.85156ZM13.125 14.4902V15.5449H0V14.4902C0 14.3145 0.146484 14.1387 0.351562 14.1387H0.908203V1.24805C0.908203 0.867188 1.23047 0.544922 1.61133 0.544922H11.4844C11.8652 0.544922 12.1875 0.867188 12.1875 1.24805V14.1387H12.7734C12.9492 14.1387 13.125 14.3145 13.125 14.4902ZM2.31445 14.1094H5.625V12.1465C5.625 11.9707 5.77148 11.7949 5.97656 11.7949H7.14844C7.32422 11.7949 7.5 11.9707 7.5 12.1465V14.1094H10.7812V1.98047L2.34375 1.95117L2.31445 14.1094Z" fill="white"/>
</svg>
