<svg width="12" height="13" viewBox="0 0 12 13" fill="none" xmlns="http://www.w3.org/2000/svg">
<path d="M6.13466 3.7251C7.73427 3.7251 9.05458 5.04541 9.05458 6.64502C9.05458 8.27002 7.73427 9.56494 6.13466 9.56494C4.50966 9.56494 3.21474 8.27002 3.21474 6.64502C3.21474 5.04541 4.50966 3.7251 6.13466 3.7251ZM6.13466 8.54932C7.17568 8.54932 8.01357 7.71143 8.01357 6.64502C8.01357 5.604 7.17568 4.76611 6.13466 4.76611C5.06825 4.76611 4.23036 5.604 4.23036 6.64502C4.23036 7.71143 5.09364 8.54932 6.13466 8.54932ZM9.84169 3.62354C9.84169 4.00439 9.537 4.30908 9.15614 4.30908C8.77529 4.30908 8.4706 4.00439 8.4706 3.62354C8.4706 3.24268 8.77529 2.93799 9.15614 2.93799C9.537 2.93799 9.84169 3.24268 9.84169 3.62354ZM11.7714 4.30908C11.8222 5.24854 11.8222 8.06689 11.7714 9.00635C11.7206 9.92041 11.5175 10.7075 10.8573 11.3931C10.1972 12.0532 9.38466 12.2563 8.4706 12.3071C7.53114 12.3579 4.71279 12.3579 3.77333 12.3071C2.85927 12.2563 2.07216 12.0532 1.38661 11.3931C0.726457 10.7075 0.523332 9.92041 0.472551 9.00635C0.42177 8.06689 0.42177 5.24854 0.472551 4.30908C0.523332 3.39502 0.726457 2.58252 1.38661 1.92236C2.07216 1.26221 2.85927 1.05908 3.77333 1.0083C4.71279 0.95752 7.53114 0.95752 8.4706 1.0083C9.38466 1.05908 10.1972 1.26221 10.8573 1.92236C11.5175 2.58252 11.7206 3.39502 11.7714 4.30908ZM10.5526 9.99658C10.8573 9.26025 10.7811 7.48291 10.7811 6.64502C10.7811 5.83252 10.8573 4.05518 10.5526 3.29346C10.3495 2.81104 9.96864 2.40479 9.48622 2.22705C8.7245 1.92236 6.94716 1.99854 6.13466 1.99854C5.29677 1.99854 3.51943 1.92236 2.7831 2.22705C2.27529 2.43018 1.89443 2.81104 1.6913 3.29346C1.38661 4.05518 1.46279 5.83252 1.46279 6.64502C1.46279 7.48291 1.38661 9.26025 1.6913 9.99658C1.89443 10.5044 2.27529 10.8853 2.7831 11.0884C3.51943 11.3931 5.29677 11.3169 6.13466 11.3169C6.94716 11.3169 8.7245 11.3931 9.48622 11.0884C9.96864 10.8853 10.3749 10.5044 10.5526 9.99658Z" fill="#E7E7E7"/>
</svg>
