<svg width="12" height="16" viewBox="0 0 12 16" fill="none" xmlns="http://www.w3.org/2000/svg">
<path d="M5.03906 14.752C0.761719 8.59961 0 7.95508 0 5.66992C0 2.56445 2.49023 0.0449219 5.625 0.0449219C8.73047 0.0449219 11.25 2.56445 11.25 5.66992C11.25 7.95508 10.459 8.59961 6.18164 14.752C5.91797 15.1621 5.30273 15.1621 5.03906 14.752ZM5.625 8.01367C6.91406 8.01367 7.96875 6.98828 7.96875 5.66992C7.96875 4.38086 6.91406 3.32617 5.625 3.32617C4.30664 3.32617 3.28125 4.38086 3.28125 5.66992C3.28125 6.98828 4.30664 8.01367 5.625 8.01367Z" fill="white"/>
</svg>
