<svg width="15" height="12" viewBox="0 0 15 12" fill="none" xmlns="http://www.w3.org/2000/svg">
<path d="M13.5938 0.419922C14.3555 0.419922 15 1.06445 15 1.82617V10.2637C15 11.0547 14.3555 11.6699 13.5938 11.6699H1.40625C0.615234 11.6699 0 11.0547 0 10.2637V1.82617C0 1.06445 0.615234 0.419922 1.40625 0.419922H13.5938ZM13.5938 1.82617H1.40625V3.02734C2.05078 3.58398 3.10547 4.4043 5.33203 6.16211C5.83008 6.54297 6.79688 7.48047 7.5 7.45117C8.17383 7.48047 9.14062 6.54297 9.63867 6.16211C11.8652 4.4043 12.9199 3.58398 13.5938 3.02734V1.82617ZM1.40625 10.2637H13.5938V4.84375C12.9199 5.37109 11.9531 6.13281 10.5176 7.27539C9.84375 7.77344 8.73047 8.88672 7.5 8.85742C6.24023 8.88672 5.09766 7.77344 4.45312 7.27539C3.01758 6.13281 2.05078 5.37109 1.40625 4.84375V10.2637Z" fill="white"/>
</svg>
