<svg width="17" height="17" viewBox="0 0 17 17" fill="none" xmlns="http://www.w3.org/2000/svg">
<path d="M15.6 1.39111C15.9438 1.48486 16.1938 1.76611 16.1938 2.10986C16.1938 10.1411 9.69375 16.6099 1.69375 16.6099C1.31875 16.6099 1.0375 16.3911 0.94375 16.0474L0.19375 12.7974C0.13125 12.4536 0.2875 12.0786 0.63125 11.9224L4.13125 10.4224C4.44375 10.2974 4.7875 10.3911 5.00625 10.6411L6.56875 12.5474C9.00625 11.3911 10.975 9.39111 12.1 7.01611L10.1938 5.45361C9.94375 5.23486 9.85 4.89111 9.975 4.57861L11.475 1.07861C11.6313 0.734863 12.0063 0.547363 12.35 0.641113L15.6 1.39111Z" fill="#6081D0"/>
</svg>
