<svg width="21" height="23" viewBox="0 0 21 23" fill="none" xmlns="http://www.w3.org/2000/svg">
<path d="M18.922 4.2032C19.674 4.53742 20.1753 5.24764 20.1753 6.04141C20.1753 15.316 14.4936 20.4546 10.9007 21.9586C10.3994 22.1675 9.85629 22.1675 9.35496 21.9586C4.88479 20.0786 0.122169 14.3551 0.122169 6.04141C0.122169 5.24764 0.58172 4.53742 1.33371 4.2032L9.35496 0.861016C9.60563 0.777461 9.85629 0.735684 10.1487 0.735684C10.3994 0.735684 10.6501 0.777461 10.9007 0.861016L18.922 4.2032ZM10.1487 19.3684C14.034 17.4048 17.3344 12.8093 17.4598 6.50096L10.1487 3.45121V19.3684Z" fill="white"/>
</svg>
