<svg width="22" height="23" viewBox="0 0 22 23" fill="none" xmlns="http://www.w3.org/2000/svg">
<g clip-path="url(#clip0_1_139)">
<g clip-path="url(#clip1_1_139)">
<path d="M11.5 15.3103L5.59375 19.5759L7.92188 12.6384L2 8.35718H9.25L11.5 1.41968L13.75 8.35718H21L15.0781 12.6384L17.4063 19.5759L11.5 15.3103Z" fill="#015AF2"/>
</g>
<path d="M11.5 15.3103L5.59375 19.5759L7.92188 12.6384L2 8.35718H9.25L11.5 1.41968L13.75 8.35718H21L15.0781 12.6384L17.4063 19.5759L11.5 15.3103ZM11.5 13.3728L14.375 15.4509L13.2344 12.0447L16.1719 9.91968H12.625L11.5 6.48218L10.3906 9.91968H6.82812L9.76563 12.0447L8.625 15.4509L11.5 13.3728Z" fill="#015AF2"/>
</g>
<defs>
<clipPath id="clip0_1_139">
<rect width="22" height="22" fill="white" transform="translate(0 0.419678)"/>
</clipPath>
<clipPath id="clip1_1_139">
<rect width="22" height="22" fill="white" transform="translate(0 0.419678)"/>
</clipPath>
</defs>
</svg>
