<svg width="14" height="11" viewBox="0 0 14 11" fill="none" xmlns="http://www.w3.org/2000/svg">
<path d="M12.1093 3.00439C12.1093 3.13135 12.1093 3.23291 12.1093 3.35986C12.1093 6.88916 9.44331 10.9263 4.54292 10.9263C3.01948 10.9263 1.623 10.4946 0.455029 9.73291C0.658154 9.7583 0.861279 9.78369 1.08979 9.78369C2.33394 9.78369 3.47651 9.35205 4.39058 8.64111C3.22261 8.61572 2.23237 7.854 1.90229 6.7876C2.08003 6.81299 2.23237 6.83838 2.41011 6.83838C2.63862 6.83838 2.89253 6.7876 3.09565 6.73682C1.8769 6.48291 0.962842 5.4165 0.962842 4.12158V4.09619C1.31831 4.29932 1.74995 4.40088 2.18159 4.42627C1.44526 3.94385 0.988232 3.13135 0.988232 2.21729C0.988232 1.70947 1.11519 1.25244 1.3437 0.871582C2.66401 2.47119 4.64448 3.5376 6.85347 3.66455C6.80269 3.46143 6.77729 3.2583 6.77729 3.05518C6.77729 1.58252 7.97065 0.38916 9.44331 0.38916C10.205 0.38916 10.8906 0.693848 11.3984 1.22705C11.9824 1.1001 12.5664 0.871582 13.0742 0.566895C12.871 1.20166 12.4648 1.70947 11.9062 2.03955C12.4394 1.98877 12.9726 1.83643 13.4296 1.6333C13.0742 2.1665 12.6171 2.62354 12.1093 3.00439Z" fill="#E7E7E7"/>
</svg>
